<svg preserveAspectRatio="none" overflow="visible" style="display: block;" width="187.35" height="39.8225" viewBox="0 0 187.35 39.8225" fill="none" xmlns="http://www.w3.org/2000/svg">
<g id="Group">
<path id="Vector" d="M14.1627 20.6116C16.6427 15.9628 22.2916 6.60572 28.0646 5.61609C35.7797 4.29757 35.2329 11.8857 35.2329 11.8857C35.2329 11.8857 40.7842 -2.15873 26.4802 0.285713C14.5617 2.32423 7.75413 17.785 5.81501 22.8842C5.64061 23.0472 5.49281 23.1835 5.31841 23.3465L0.169094 24.9376C-0.0466917 25.0028 -0.0585156 25.305 0.148403 25.3909L9.64005 29.2961C9.94747 29.4235 10.2992 29.3376 10.515 29.0857L18.5612 19.7168C18.7178 19.5331 18.5375 19.2576 18.307 19.3287L14.1627 20.6087V20.6116Z" fill="url(#paint0_linear_0_40)"/>
<path id="Vector_2" d="M53.5513 12.9204L43.0606 7.95746C42.9749 7.91598 42.8714 7.9308 42.7975 7.99598L28.3546 20.8138C28.1625 20.9856 28.3369 21.2997 28.5852 21.2256L36.3446 18.8345C33.9828 23.3323 28.1772 33.193 22.2416 34.2064C14.5265 35.5249 15.0734 27.9367 15.0734 27.9367C15.0734 27.9367 9.52208 41.9812 23.826 39.5367C35.9899 37.4567 42.833 21.3915 44.6066 16.636C44.6982 16.3871 44.9022 16.1945 45.1564 16.1175C46.5959 15.673 51.494 14.1649 53.4834 13.5515C53.8026 13.4538 53.844 13.0597 53.5513 12.9204Z" fill="url(#paint1_linear_0_40)"/>
<path id="Vector_3" d="M69.3294 17.7971C68.2325 17.7971 67.2532 17.5503 66.3912 17.0566C65.5405 16.5629 64.8689 15.8561 64.3764 14.9361C63.8952 14.0048 63.6546 12.8829 63.6546 11.5701C63.6546 10.3023 63.8839 9.20277 64.343 8.27154C64.813 7.32908 65.479 6.5998 66.341 6.08368C67.2026 5.56757 68.2156 5.30952 69.38 5.30952C70.9804 5.30952 72.223 5.7022 73.1072 6.4876C74.0025 7.27299 74.5793 8.40057 74.8367 9.87035L71.7977 9.98816C71.6744 9.27009 71.4057 8.70911 70.9916 8.3052C70.5775 7.90129 70.0404 7.69933 69.38 7.69933C68.7977 7.69933 68.2996 7.86203 67.8854 8.18739C67.4825 8.51275 67.1748 8.96715 66.962 9.55059C66.7607 10.134 66.6599 10.8072 66.6599 11.5701C66.6599 12.3555 66.7663 13.0343 66.9789 13.6065C67.2026 14.1787 67.5162 14.6219 67.9191 14.9361C68.322 15.2502 68.8033 15.4073 69.3631 15.4073C70.0906 15.4073 70.6502 15.1941 71.0421 14.7678C71.445 14.3302 71.7025 13.7299 71.8145 12.967L74.8701 13.0848C74.7022 14.0834 74.3833 14.9361 73.9133 15.6429C73.443 16.3385 72.8272 16.8715 72.0664 17.2417C71.3052 17.612 70.3927 17.7971 69.3294 17.7971ZM78.8397 17.5278C78.0339 17.5278 77.4069 17.3259 76.9591 16.922C76.5116 16.5181 76.2875 15.8617 76.2875 14.9529V5.5788H79.1755V14.6331C79.1755 14.9248 79.2426 15.1324 79.3771 15.2558C79.5113 15.3792 79.7017 15.441 79.9479 15.441H80.5018V17.5278H78.8397ZM85.8643 17.7298C84.924 17.7298 84.1013 17.5334 83.396 17.1408C82.691 16.7481 82.1424 16.1983 81.7507 15.4914C81.3591 14.7846 81.1631 13.9544 81.1631 13.0007C81.1631 12.047 81.3591 11.2223 81.7507 10.5267C82.1424 9.81986 82.6854 9.27009 83.3795 8.8774C84.0845 8.47349 84.9071 8.27154 85.8474 8.27154C86.7877 8.27154 87.5991 8.47349 88.282 8.8774C88.976 9.27009 89.5078 9.83669 89.877 10.5772C90.2465 11.3177 90.4313 12.1984 90.4313 13.2194V13.758H84.1516C84.1853 14.3863 84.3588 14.8575 84.6721 15.1717C84.9967 15.4746 85.4108 15.6261 85.9145 15.6261C86.2953 15.6261 86.6142 15.5532 86.8717 15.4073C87.1291 15.2502 87.3139 14.9978 87.4256 14.65L90.3136 14.8183C90.0674 15.7607 89.5468 16.4844 88.7523 16.9893C87.9574 17.4829 86.9949 17.7298 85.8643 17.7298ZM84.1516 12.1087H87.5096C87.4874 11.5141 87.3251 11.0709 87.0227 10.7792C86.7206 10.4762 86.329 10.3248 85.8474 10.3248C85.3887 10.3248 85.0023 10.4818 84.689 10.796C84.3869 11.1101 84.2077 11.5477 84.1516 12.1087ZM94.6837 17.7298C93.7434 17.7298 92.971 17.511 92.3668 17.0734C91.7623 16.6359 91.4599 16.03 91.4599 15.2558C91.4599 14.4592 91.7174 13.8421 92.2323 13.4046C92.7473 12.967 93.4972 12.6472 94.4821 12.4453L97.2862 11.8731C97.2862 11.3458 97.1685 10.9474 96.9335 10.6782C96.7097 10.3977 96.3852 10.2574 95.9598 10.2574C95.5345 10.2574 95.1987 10.364 94.9524 10.5772C94.7174 10.7792 94.5661 11.0709 94.499 11.4523L91.6113 11.3514C91.7901 10.3079 92.2548 9.53376 93.0047 9.02887C93.7547 8.52398 94.7396 8.27154 95.9598 8.27154C97.3701 8.27154 98.4221 8.5913 99.1162 9.23083C99.8215 9.87035 100.174 10.824 100.174 12.0919V14.9529C100.174 15.2334 100.219 15.4185 100.308 15.5083C100.409 15.598 100.543 15.6429 100.711 15.6429H100.93V17.5278C100.84 17.5615 100.694 17.5896 100.493 17.612C100.292 17.6344 100.096 17.6456 99.9055 17.6456C99.5584 17.6456 99.2226 17.5896 98.8981 17.4773C98.5735 17.3539 98.3048 17.1408 98.092 16.8378C97.8794 16.5237 97.773 16.0749 97.773 15.4914L97.9915 15.7102C97.8794 16.1141 97.6778 16.4732 97.387 16.7873C97.107 17.0903 96.7432 17.3259 96.2956 17.4942C95.8478 17.6512 95.3107 17.7298 94.6837 17.7298ZM95.4393 15.8449C95.7975 15.8449 96.1165 15.772 96.3964 15.6261C96.6761 15.4802 96.8945 15.2671 97.0512 14.9866C97.2078 14.7061 97.2862 14.3583 97.2862 13.9431V13.5729L95.5401 13.9768C95.193 14.0553 94.9187 14.1787 94.7174 14.347C94.5271 14.5041 94.4319 14.7173 94.4319 14.9866C94.4319 15.2558 94.5158 15.469 94.6837 15.6261C94.8516 15.772 95.1035 15.8449 95.4393 15.8449ZM102.161 17.5278V8.47349H104.931L105.032 11.2167L104.814 11.1831C104.971 10.2182 105.234 9.52816 105.603 9.11302C105.973 8.68668 106.487 8.47349 107.148 8.47349H107.937V10.8128H107.131C106.65 10.8128 106.258 10.8689 105.956 10.9811C105.653 11.0933 105.424 11.2784 105.267 11.5365C105.122 11.7833 105.049 12.1255 105.049 12.5631V17.5278H102.161ZM114.778 17.7971C113.625 17.7971 112.634 17.5334 111.806 17.0061C110.977 16.4788 110.339 15.7495 109.892 14.8183C109.444 13.887 109.22 12.8043 109.22 11.5701C109.22 10.3696 109.45 9.29814 109.908 8.35569C110.368 7.41323 111.022 6.67272 111.873 6.13417C112.735 5.5844 113.77 5.30952 114.979 5.30952C116.042 5.30952 116.932 5.48342 117.649 5.83124C118.376 6.16783 118.958 6.65589 119.395 7.29542C119.843 7.93494 120.156 8.69788 120.335 9.58425L117.313 9.71889C117.201 9.07936 116.966 8.5857 116.608 8.23788C116.25 7.87886 115.718 7.69933 115.013 7.69933C114.397 7.69933 113.882 7.86763 113.468 8.20422C113.054 8.54081 112.74 9.00081 112.528 9.58425C112.326 10.1565 112.226 10.8184 112.226 11.5701C112.226 12.3219 112.326 12.9894 112.528 13.5729C112.729 14.1451 113.037 14.5939 113.451 14.9192C113.877 15.2446 114.414 15.4073 115.063 15.4073C115.533 15.4073 115.936 15.3176 116.272 15.138C116.619 14.9585 116.893 14.7117 117.095 14.3975C117.296 14.0722 117.419 13.7019 117.464 13.2868H114.996V11.2504H120.369V17.5278H118.622L118.471 15.037L118.807 15.138C118.695 15.6653 118.449 16.131 118.068 16.5349C117.699 16.9276 117.229 17.2361 116.658 17.4605C116.098 17.6849 115.472 17.7971 114.778 17.7971ZM125.136 17.7298C124.196 17.7298 123.463 17.4325 122.937 16.8378C122.422 16.232 122.165 15.3905 122.165 14.3134V8.47349H125.053V13.6402C125.053 14.2797 125.142 14.7453 125.321 15.037C125.512 15.3288 125.808 15.4746 126.211 15.4746C126.659 15.4746 127 15.3176 127.235 15.0034C127.482 14.678 127.605 14.1731 127.605 13.4887V8.47349H130.493V17.5278H127.89L127.806 14.8014L128.142 14.8519C128.03 15.8168 127.722 16.5405 127.219 17.0229C126.715 17.4942 126.021 17.7298 125.136 17.7298ZM132.445 17.5278V8.47349H135.333V17.5278H132.445ZM132.395 7.46372V5.30952H135.384V7.46372H132.395ZM140.44 17.7298C139.679 17.7298 139.025 17.5391 138.476 17.1576C137.939 16.7649 137.519 16.2151 137.217 15.5083C136.915 14.8014 136.764 13.9656 136.764 13.0007C136.764 12.0358 136.915 11.1999 137.217 10.493C137.519 9.7862 137.944 9.24206 138.493 8.86057C139.052 8.46789 139.702 8.27154 140.44 8.27154C141.09 8.27154 141.644 8.40617 142.103 8.67545C142.562 8.93349 142.908 9.29814 143.144 9.76937V5.5788H146.031V17.5278H143.244L143.194 16.2151C142.948 16.6976 142.584 17.0734 142.103 17.3427C141.621 17.6008 141.067 17.7298 140.44 17.7298ZM141.448 15.5924C141.817 15.5924 142.125 15.4971 142.371 15.3063C142.629 15.1156 142.819 14.8295 142.942 14.448C143.076 14.0665 143.144 13.5841 143.144 13.0007C143.144 12.4172 143.076 11.9348 142.942 11.5533C142.819 11.1718 142.629 10.8857 142.371 10.695C142.125 10.5043 141.817 10.4089 141.448 10.4089C140.922 10.4089 140.502 10.6445 140.189 11.1157C139.886 11.5757 139.735 12.2041 139.735 13.0007C139.735 13.7748 139.892 14.4031 140.205 14.8856C140.519 15.3568 140.933 15.5924 141.448 15.5924ZM150.694 17.7298C149.754 17.7298 148.981 17.511 148.377 17.0734C147.772 16.6359 147.47 16.03 147.47 15.2558C147.47 14.4592 147.728 13.8421 148.242 13.4046C148.757 12.967 149.507 12.6472 150.493 12.4453L153.296 11.8731C153.296 11.3458 153.179 10.9474 152.944 10.6782C152.72 10.3977 152.395 10.2574 151.97 10.2574C151.545 10.2574 151.209 10.364 150.963 10.5772C150.728 10.7792 150.576 11.0709 150.509 11.4523L147.621 11.3514C147.801 10.3079 148.265 9.53376 149.015 9.02887C149.765 8.52398 150.75 8.27154 151.97 8.27154C153.38 8.27154 154.433 8.5913 155.126 9.23083C155.832 9.87035 156.184 10.824 156.184 12.0919V14.9529C156.184 15.2334 156.229 15.4185 156.318 15.5083C156.419 15.598 156.553 15.6429 156.721 15.6429H156.94V17.5278C156.85 17.5615 156.705 17.5896 156.503 17.612C156.302 17.6344 156.106 17.6456 155.916 17.6456C155.569 17.6456 155.233 17.5896 154.908 17.4773C154.584 17.3539 154.315 17.1408 154.102 16.8378C153.89 16.5237 153.783 16.0749 153.783 15.4914L154.002 15.7102C153.89 16.1141 153.688 16.4732 153.397 16.7873C153.117 17.0903 152.754 17.3259 152.306 17.4942C151.858 17.6512 151.321 17.7298 150.694 17.7298ZM151.449 15.8449C151.808 15.8449 152.127 15.772 152.407 15.6261C152.686 15.4802 152.905 15.2671 153.061 14.9866C153.218 14.7061 153.296 14.3583 153.296 13.9431V13.5729L151.55 13.9768C151.203 14.0553 150.929 14.1787 150.728 14.347C150.537 14.5041 150.442 14.7173 150.442 14.9866C150.442 15.2558 150.526 15.469 150.694 15.6261C150.862 15.772 151.114 15.8449 151.449 15.8449ZM158.171 17.5278V8.47349H160.757L160.875 11.2504L160.522 11.1831C160.6 10.465 160.774 9.89278 161.042 9.46644C161.322 9.0401 161.669 8.73717 162.084 8.55764C162.498 8.36692 162.956 8.27154 163.46 8.27154C164.098 8.27154 164.647 8.41177 165.106 8.69228C165.576 8.96155 165.934 9.35423 166.18 9.87035C166.426 10.3752 166.549 10.9867 166.549 11.7048V17.5278H163.662V12.6977C163.662 12.2377 163.628 11.845 163.561 11.5197C163.494 11.1943 163.371 10.9474 163.191 10.7792C163.023 10.6109 162.777 10.5267 162.453 10.5267C161.983 10.5267 161.63 10.7174 161.395 11.0989C161.171 11.4692 161.059 12.0021 161.059 12.6977V17.5278H158.171ZM172.668 17.7298C171.705 17.7298 170.872 17.5334 170.166 17.1408C169.461 16.7481 168.907 16.1983 168.504 15.4914C168.113 14.7846 167.917 13.9544 167.917 13.0007C167.917 12.047 168.113 11.2223 168.504 10.5267C168.907 9.81986 169.461 9.27009 170.166 8.8774C170.872 8.47349 171.705 8.27154 172.668 8.27154C173.497 8.27154 174.241 8.423 174.901 8.72594C175.562 9.01764 176.099 9.43838 176.513 9.98816C176.927 10.5267 177.173 11.1775 177.252 11.9404L174.297 12.075C174.218 11.5253 174.034 11.1157 173.743 10.8465C173.452 10.566 173.094 10.4257 172.668 10.4257C172.097 10.4257 171.655 10.6501 171.342 11.0989C171.04 11.5477 170.888 12.1816 170.888 13.0007C170.888 13.8309 171.04 14.4704 171.342 14.9192C171.655 15.368 172.097 15.5924 172.668 15.5924C173.105 15.5924 173.468 15.4522 173.76 15.1717C174.062 14.8912 174.241 14.4536 174.297 13.859L177.252 13.96C177.185 14.7341 176.95 15.4073 176.546 15.9795C176.144 16.5405 175.612 16.9725 174.951 17.2754C174.291 17.5783 173.53 17.7298 172.668 17.7298ZM182.784 17.7298C181.843 17.7298 181.021 17.5334 180.315 17.1408C179.61 16.7481 179.062 16.1983 178.67 15.4914C178.278 14.7846 178.082 13.9544 178.082 13.0007C178.082 12.047 178.278 11.2223 178.67 10.5267C179.062 9.81986 179.605 9.27009 180.299 8.8774C181.004 8.47349 181.826 8.27154 182.767 8.27154C183.707 8.27154 184.518 8.47349 185.201 8.8774C185.895 9.27009 186.427 9.83669 186.796 10.5772C187.166 11.3177 187.35 12.1984 187.35 13.2194V13.758H181.071C181.105 14.3863 181.278 14.8575 181.591 15.1717C181.916 15.4746 182.33 15.6261 182.834 15.6261C183.215 15.6261 183.534 15.5532 183.791 15.4073C184.048 15.2502 184.233 14.9978 184.345 14.65L187.233 14.8183C186.987 15.7607 186.466 16.4844 185.671 16.9893C184.877 17.4829 183.914 17.7298 182.784 17.7298ZM181.071 12.1087H184.429C184.406 11.5141 184.244 11.0709 183.942 10.7792C183.64 10.4762 183.248 10.3248 182.767 10.3248C182.308 10.3248 181.922 10.4818 181.608 10.796C181.306 11.1101 181.127 11.5477 181.071 12.1087Z" fill="white"/>
<path id="Vector_4" d="M67.0628 33.3587C66.3844 33.3587 65.7968 33.2452 65.2993 33.0188C64.8018 32.7922 64.4175 32.4704 64.1462 32.0532C63.884 31.6271 63.7483 31.1288 63.7394 30.5575H65.435C65.435 30.9655 65.5795 31.2873 65.8689 31.5231C66.1675 31.7495 66.5698 31.863 67.0764 31.863C67.5647 31.863 67.9446 31.7495 68.2156 31.5231C68.4962 31.2965 68.6363 30.9836 68.6363 30.5848C68.6363 30.2493 68.5367 29.9593 68.3377 29.7145C68.148 29.4608 67.8722 29.2886 67.5104 29.1979L66.3708 28.8852C65.5931 28.6858 64.9919 28.3277 64.5668 27.811C64.1509 27.2943 63.9428 26.6689 63.9428 25.9346C63.9428 25.3726 64.0693 24.8831 64.3226 24.4661C64.576 24.0492 64.933 23.7274 65.3942 23.5008C65.8645 23.2741 66.4161 23.1608 67.0492 23.1608C68.0078 23.1608 68.7675 23.4101 69.328 23.9087C69.8887 24.3982 70.1737 25.0599 70.1826 25.8939H68.487C68.487 25.504 68.3605 25.2004 68.1072 24.9828C67.8541 24.7562 67.4968 24.6429 67.0356 24.6429C66.5925 24.6429 66.2487 24.7472 66.0046 24.9557C65.7604 25.1641 65.6383 25.4587 65.6383 25.8395C65.6383 26.1839 65.7288 26.4785 65.9097 26.7233C66.0998 26.9589 66.3708 27.1267 66.7235 27.2264L67.9038 27.5527C68.6907 27.7521 69.2919 28.1101 69.7078 28.6269C70.124 29.1345 70.3318 29.7646 70.3318 30.5169C70.3318 31.079 70.1962 31.5774 69.9251 32.0126C69.6537 32.4387 69.2739 32.7693 68.7856 33.0052C68.2972 33.2408 67.7229 33.3587 67.0628 33.3587ZM75.9831 33.2227C75.2689 33.2227 74.7082 33.0233 74.3011 32.6245C73.9032 32.2256 73.7043 31.6772 73.7043 30.9791V27.2807H71.683V25.7443H73.7043V23.6367H75.4134V25.7443H78.2757V27.2807H75.4134V30.9791C75.4134 31.4505 75.644 31.6861 76.1052 31.6861H78.14V33.2227H75.9831ZM83.3029 33.3587C82.3535 33.3587 81.6074 33.0959 81.0647 32.5699C80.5223 32.0351 80.2509 31.3101 80.2509 30.3945V25.7443H81.9464V30.3809C81.9464 30.8612 82.0641 31.2331 82.2991 31.4959C82.5344 31.7495 82.869 31.8766 83.3029 31.8766C83.728 31.8766 84.0582 31.7495 84.2932 31.4959C84.5374 31.2331 84.6594 30.8612 84.6594 30.3809V25.7443H86.355V30.3945C86.355 31.3101 86.0792 32.0351 85.5276 32.5699C84.976 33.0959 84.2344 33.3587 83.3029 33.3587ZM90.799 33.3587C90.0576 33.3587 89.4561 33.1003 88.995 32.5836C88.5427 32.0668 88.3166 31.3735 88.3166 30.5033V28.4773C88.3166 27.598 88.5427 26.9 88.995 26.3833C89.4472 25.8667 90.0485 25.6083 90.799 25.6083C91.4141 25.6083 91.9025 25.7851 92.264 26.1386C92.6258 26.483 92.8067 26.9589 92.8067 27.5663L92.4269 27.172H92.8203L92.7659 25.3907V23.2968H94.4617V33.2227H92.8067V31.7948H92.4269L92.8067 31.4008C92.8067 32.0079 92.6258 32.4885 92.264 32.8419C91.9025 33.1862 91.4141 33.3587 90.799 33.3587ZM91.3958 31.8902C91.83 31.8902 92.1647 31.7631 92.3997 31.5095C92.6438 31.2467 92.7659 30.884 92.7659 30.4218V28.5453C92.7659 28.083 92.6438 27.7249 92.3997 27.4711C92.1647 27.2082 91.83 27.0768 91.3958 27.0768C90.9619 27.0768 90.6228 27.2037 90.3787 27.4575C90.1345 27.7113 90.0124 28.0739 90.0124 28.5453V30.4218C90.0124 30.8929 90.1345 31.2556 90.3787 31.5095C90.6228 31.7631 90.9619 31.8902 91.3958 31.8902ZM96.5318 33.2227V31.6725H99.1363V27.2807H96.8709V25.7443H100.764V31.6725H103.07V33.2227H96.5318ZM99.8144 24.4933C99.4709 24.4933 99.1996 24.4072 99.0007 24.235C98.8017 24.0537 98.7021 23.8135 98.7021 23.5144C98.7021 23.2152 98.8017 22.9795 99.0007 22.8073C99.1996 22.626 99.4709 22.5354 99.8144 22.5354C100.158 22.5354 100.43 22.626 100.629 22.8073C100.827 22.9795 100.927 23.2152 100.927 23.5144C100.927 23.8135 100.827 24.0537 100.629 24.235C100.43 24.4072 100.158 24.4933 99.8144 24.4933ZM107.704 33.3451C107.071 33.3451 106.519 33.2271 106.049 32.9916C105.588 32.7468 105.226 32.4067 104.964 31.9717C104.711 31.5276 104.584 31.0064 104.584 30.4082V28.5589C104.584 27.9606 104.711 27.4439 104.964 27.0088C105.226 26.5646 105.588 26.2247 106.049 25.989C106.519 25.7443 107.071 25.6219 107.704 25.6219C108.346 25.6219 108.898 25.7443 109.359 25.989C109.82 26.2247 110.177 26.5646 110.431 27.0088C110.693 27.4439 110.824 27.956 110.824 28.5453V30.4082C110.824 31.0064 110.693 31.5276 110.431 31.9717C110.177 32.4067 109.82 32.7468 109.359 32.9916C108.898 33.2271 108.346 33.3451 107.704 33.3451ZM107.704 31.863C108.156 31.863 108.504 31.7406 108.749 31.4959C109.002 31.2419 109.128 30.8793 109.128 30.4082V28.5589C109.128 28.0784 109.002 27.7158 108.749 27.4711C108.504 27.2264 108.156 27.104 107.704 27.104C107.261 27.104 106.913 27.2264 106.66 27.4711C106.406 27.7158 106.28 28.0784 106.28 28.5589V30.4082C106.28 30.8793 106.406 31.2419 106.66 31.4959C106.913 31.7406 107.261 31.863 107.704 31.863ZM120.933 33.2227V31.6725H123.537V27.2807H121.272V25.7443H125.165V31.6725H127.471V33.2227H120.933ZM124.215 24.4933C123.872 24.4933 123.601 24.4072 123.402 24.235C123.203 24.0537 123.103 23.8135 123.103 23.5144C123.103 23.2152 123.203 22.9795 123.402 22.8073C123.601 22.626 123.872 22.5354 124.215 22.5354C124.559 22.5354 124.831 22.626 125.029 22.8073C125.228 22.9795 125.328 23.2152 125.328 23.5144C125.328 23.8135 125.228 24.0537 125.029 24.235C124.831 24.4072 124.559 24.4933 124.215 24.4933ZM129.08 33.2227V25.7443H130.735V27.172H131.196L130.735 27.5663C130.735 26.9499 130.911 26.4694 131.264 26.125C131.626 25.7805 132.119 25.6083 132.743 25.6083C133.475 25.6083 134.059 25.8531 134.492 26.3425C134.936 26.832 135.157 27.4892 135.157 28.3141V33.2227H133.462V28.4909C133.462 28.0376 133.344 27.6886 133.109 27.4439C132.874 27.1992 132.544 27.0768 132.119 27.0768C131.703 27.0768 131.372 27.2037 131.128 27.4575C130.893 27.7113 130.776 28.0739 130.776 28.5453V33.2227H129.08ZM140.279 33.3587C139.646 33.3587 139.09 33.2408 138.611 33.0052C138.141 32.7605 137.774 32.4203 137.512 31.9853C137.25 31.5412 137.119 31.02 137.119 30.4218V28.5453C137.119 27.9379 137.25 27.4167 137.512 26.9816C137.774 26.5465 138.141 26.2111 138.611 25.9754C139.09 25.7307 139.646 25.6083 140.279 25.6083C141.22 25.6083 141.97 25.8531 142.531 26.3425C143.092 26.823 143.386 27.4802 143.413 28.3141H141.717C141.69 27.9243 141.55 27.6252 141.297 27.4167C141.053 27.1992 140.714 27.0904 140.279 27.0904C139.827 27.0904 139.47 27.2173 139.208 27.4711C138.946 27.7158 138.814 28.0694 138.814 28.5317V30.4218C138.814 30.884 138.946 31.2419 139.208 31.4959C139.47 31.7495 139.827 31.8766 140.279 31.8766C140.714 31.8766 141.053 31.7723 141.297 31.5637C141.55 31.3462 141.69 31.0425 141.717 30.6529H143.413C143.386 31.4867 143.092 32.1486 142.531 32.6381C141.97 33.1184 141.22 33.3587 140.279 33.3587ZM148.373 33.3587C147.984 33.3587 147.672 33.2452 147.436 33.0188C147.21 32.7922 147.097 32.484 147.097 32.0941C147.097 31.7042 147.21 31.396 147.436 31.1693C147.672 30.9338 147.984 30.8159 148.373 30.8159C148.761 30.8159 149.069 30.9338 149.295 31.1693C149.53 31.396 149.647 31.7042 149.647 32.0941C149.647 32.484 149.53 32.7922 149.295 33.0188C149.069 33.2452 148.761 33.3587 148.373 33.3587Z" fill="#3880F4"/>
</g>
<defs>
<linearGradient id="paint0_linear_0_40" x1="32.5202" y1="-3.08569" x2="11.2657" y2="27.5386" gradientUnits="userSpaceOnUse">
<stop stop-color="#00E89B"/>
<stop offset="1" stop-color="#3880F4"/>
</linearGradient>
<linearGradient id="paint1_linear_0_40" x1="16.4946" y1="41.1916" x2="44.1842" y2="9.57905" gradientUnits="userSpaceOnUse">
<stop stop-color="#00E89B"/>
<stop offset="1" stop-color="#3880F4"/>
</linearGradient>
</defs>
</svg>
